# xmcd CD database file
#
# Track frame offsets:
#	150
#	17768
#	36706
#	54325
#	68500
#	91401
#	110924
#	141876
#	163071
#	185344
#	207916
#	225932
#
# Disc length: 3302 seconds
#
# Revision: 1
# Processed by: cddbd v1.5.2PL0 Copyright (c) Steve Scherf et al.
# Submitted via: CDex 1.51
#
DISCID=a30ce40c
DTITLE=B.B. King and Friends - 80
DYEAR=2005
DGENRE=Blues
TTITLE0=Tired Of Your Jive
TTITLE1=Funny How Time Slips Away
TTITLE2=Ain't Nobody Home
TTITLE3=Rock This House
TTITLE4=The Thrill Is Gone
TTITLE5=Drivin' Wheel
TTITLE6=There Must Be A Better World Somewhere
TTITLE7=Hummingbird
TTITLE8=All Over Again
TTITLE9=Never Make Your Move Too Soon
TTITLE10=Need Your Love So Bad
TTITLE11=Early In The Morning
EXTD=YEAR: 2005
EXTT0=
EXTT1=
EXTT2=
EXTT3=
EXTT4=
EXTT5=
EXTT6=
EXTT7=
EXTT8=
EXTT9=
EXTT10=
EXTT11=
PLAYORDER=
